<svg width="270" height="377" viewBox="0 0 270 377" fill="none" xmlns="http://www.w3.org/2000/svg">
<path d="M36.6 361V311.37H44.44V336.92L67.82 311.3H76.5L56.9 333.28L77.62 361H68.73L51.93 338.25L44.44 346.02V361H36.6ZM81.8309 361V324.39H89.5309V361H81.8309ZM81.8309 318.37V309.9H89.5309V318.37H81.8309ZM115.374 361.7C112.527 361.7 109.937 361.21 107.604 360.23C105.317 359.203 103.334 357.827 101.654 356.1C99.9741 354.327 98.6674 352.32 97.7341 350.08C96.8474 347.793 96.4041 345.367 96.4041 342.8C96.4041 339.347 97.1974 336.197 98.7841 333.35C100.371 330.457 102.587 328.147 105.434 326.42C108.281 324.647 111.617 323.76 115.444 323.76C119.271 323.76 122.561 324.647 125.314 326.42C128.114 328.147 130.284 330.433 131.824 333.28C133.364 336.127 134.134 339.183 134.134 342.45C134.134 343.01 134.111 343.547 134.064 344.06C134.017 344.527 133.971 344.923 133.924 345.25H104.594C104.734 347.397 105.317 349.287 106.344 350.92C107.417 352.507 108.771 353.767 110.404 354.7C112.037 355.587 113.787 356.03 115.654 356.03C117.707 356.03 119.644 355.517 121.464 354.49C123.331 353.463 124.591 352.11 125.244 350.43L131.824 352.32C131.031 354.093 129.817 355.703 128.184 357.15C126.597 358.55 124.707 359.67 122.514 360.51C120.321 361.303 117.941 361.7 115.374 361.7ZM104.384 340.14H126.504C126.364 338.04 125.757 336.197 124.684 334.61C123.657 332.977 122.327 331.717 120.694 330.83C119.107 329.897 117.334 329.43 115.374 329.43C113.461 329.43 111.687 329.897 110.054 330.83C108.467 331.717 107.161 332.977 106.134 334.61C105.107 336.197 104.524 338.04 104.384 340.14ZM160.995 331.04C158.008 331.087 155.348 331.763 153.015 333.07C150.728 334.377 149.095 336.22 148.115 338.6V361H140.415V324.39H147.555V332.58C148.815 330.06 150.472 328.053 152.525 326.56C154.578 325.02 156.748 324.18 159.035 324.04C159.502 324.04 159.875 324.04 160.155 324.04C160.482 324.04 160.762 324.063 160.995 324.11V331.04ZM182.503 361.7C179.656 361.7 177.066 361.21 174.733 360.23C172.446 359.203 170.463 357.827 168.783 356.1C167.103 354.327 165.796 352.32 164.863 350.08C163.976 347.793 163.533 345.367 163.533 342.8C163.533 339.347 164.326 336.197 165.913 333.35C167.5 330.457 169.716 328.147 172.563 326.42C175.41 324.647 178.746 323.76 182.573 323.76C186.4 323.76 189.69 324.647 192.443 326.42C195.243 328.147 197.413 330.433 198.953 333.28C200.493 336.127 201.263 339.183 201.263 342.45C201.263 343.01 201.24 343.547 201.193 344.06C201.146 344.527 201.1 344.923 201.053 345.25H171.723C171.863 347.397 172.446 349.287 173.473 350.92C174.546 352.507 175.9 353.767 177.533 354.7C179.166 355.587 180.916 356.03 182.783 356.03C184.836 356.03 186.773 355.517 188.593 354.49C190.46 353.463 191.72 352.11 192.373 350.43L198.953 352.32C198.16 354.093 196.946 355.703 195.313 357.15C193.726 358.55 191.836 359.67 189.643 360.51C187.45 361.303 185.07 361.7 182.503 361.7ZM171.513 340.14H193.633C193.493 338.04 192.886 336.197 191.813 334.61C190.786 332.977 189.456 331.717 187.823 330.83C186.236 329.897 184.463 329.43 182.503 329.43C180.59 329.43 178.816 329.897 177.183 330.83C175.596 331.717 174.29 332.977 173.263 334.61C172.236 336.197 171.653 338.04 171.513 340.14ZM240.374 361H232.674V340.49C232.674 337.083 232.114 334.587 230.994 333C229.92 331.413 228.31 330.62 226.164 330.62C224.67 330.62 223.177 330.993 221.684 331.74C220.237 332.487 218.93 333.513 217.764 334.82C216.597 336.08 215.757 337.55 215.244 339.23V361H207.544V324.39H214.544V331.74C215.477 330.107 216.69 328.707 218.184 327.54C219.724 326.327 221.45 325.393 223.364 324.74C225.277 324.087 227.307 323.76 229.454 323.76C231.647 323.76 233.444 324.157 234.844 324.95C236.29 325.743 237.41 326.84 238.204 328.24C239.044 329.593 239.604 331.18 239.884 333C240.21 334.773 240.374 336.663 240.374 338.67V361Z" fill="#D57D1F"/>
<path d="M220.008 78.6582L159.008 76.6582L67.5083 222.158L88.0083 295.158L220.008 78.6582Z" fill="white"/>
<path d="M0.0105435 216.497L60.9989 218.825L153.282 73.8205L133.175 0.711069L0.0105435 216.497Z" fill="white"/>
<path d="M269.508 292.158L172.008 170.658L137.508 225.658L191.008 292.158H269.508Z" fill="white"/>
</svg>
